<svg xmlns="http://www.w3.org/2000/svg" id="Layer_1" data-name="Layer 1" viewBox="0 0 239.61 131.33"><g id="yUFo7D"><path d="M99.59,98.21c0,6.59.18,13.19-.11,19.76-.09,2-.9,4.71-2.35,5.8C84.18,133.48,69.84,134,55.4,128.24c-13.82-5.5-24.23-14.76-25.67-30.72C27.62,74,43.55,58.82,68.35,60.45,78.53,61.13,88,64.3,95.8,71a12,12,0,0,1,3.62,7.46C99.93,85,99.59,91.63,99.59,98.21Zm-25,0c4.37.17,7.57-1.23,7.68-6,.12-4.65-3-6.66-7.2-6.9-7.67-.44-15.35-.74-23-1-4.16-.15-7,1.63-7.25,6-.29,4.63,2.36,7,6.76,7.2C55.64,97.66,71,98.06,74.57,98.19Z" transform="translate(-29.55 -60.33)"></path><path d="M36.42,122.26a41,41,0,0,0,7.85,6,56.7,56.7,0,0,0,10.24,5.14,56,56,0,0,0,11.6,3c1.08.16,2.29,1.72,2.84,2.9,5.54,12.17,11.08,24.34,16.37,36.62,2.58,6,1,9.58-4.9,12.37-1.87.89-3.8,1.66-5.71,2.47-4.84,2.08-8.9.65-10.94-3.87Q58,174.07,52.31,161.21c-3.79-8.56-16.83-39-17.77-41.11a8.48,8.48,0,0,0,.77.91C35.66,121.44,36,121.86,36.42,122.26Z" transform="translate(-29.55 -60.33)"></path><path d="M104.73,125.69c0-17.66,0-35,.14-52.28,0-1,1.9-2.72,3.08-2.88a27,27,0,0,1,23.32,7.6,8.5,8.5,0,0,1,2.14,5.45c.22,9.61.34,19.24,0,28.85a11.08,11.08,0,0,1-3.4,7.14C123.06,125.68,114.75,127.39,104.73,125.69Z" transform="translate(-29.55 -60.33)"></path></g><path d="M199.28,78.46A12,12,0,0,1,202.9,71c7.82-6.7,17.27-9.87,27.45-10.55C255.15,58.82,271.08,74,269,97.52c-1.44,16-11.85,25.22-25.67,30.72-14.44,5.75-28.78,5.24-41.73-4.47-1.45-1.09-2.26-3.8-2.35-5.8-.29-6.57-.11-13.17-.11-19.76S198.77,85,199.28,78.46Zm47.89,19c4.4-.23,7.05-2.57,6.76-7.2-.28-4.4-3.09-6.18-7.25-6-7.68.29-15.36.59-23,1-4.24.24-7.32,2.25-7.2,6.9.11,4.81,3.31,6.21,7.68,6C227.68,98.06,243.06,97.66,247.17,97.45Z" transform="translate(-29.55 -60.33)"></path><path d="M262.28,122.26a41,41,0,0,1-7.85,6,56.7,56.7,0,0,1-10.24,5.14,56,56,0,0,1-11.6,3c-1.08.16-2.29,1.72-2.84,2.9-5.54,12.17-11.08,24.34-16.37,36.62-2.58,6-1,9.58,4.9,12.37,1.87.89,3.8,1.66,5.71,2.47,4.84,2.08,8.9.65,10.94-3.87q5.79-12.8,11.46-25.65c3.79-8.56,16.83-39,17.77-41.11a8.48,8.48,0,0,1-.77.91C263,121.44,262.67,121.86,262.28,122.26Z" transform="translate(-29.55 -60.33)"></path><path d="M194,125.69c0-17.66.05-35-.14-52.28,0-1-1.9-2.72-3.08-2.88a27,27,0,0,0-23.32,7.6,8.5,8.5,0,0,0-2.14,5.45c-.22,9.61-.34,19.24,0,28.85a11.08,11.08,0,0,0,3.4,7.14C175.64,125.68,184,127.39,194,125.69Z" transform="translate(-29.55 -60.33)"></path></svg>