<svg xmlns="http://www.w3.org/2000/svg" id="Layer_1" data-name="Layer 1" viewBox="0 0 400 226"><path d="M335.4,191.2H64.6V18H335.4Zm-266.8-4H331.4V22H68.6Z"></path><path d="M200,16.5a4.5,4.5,0,1,1,4.5-4.5A4.51,4.51,0,0,1,200,16.5Zm0-6a1.5,1.5,0,1,0,1.5,1.5A1.5,1.5,0,0,0,200,10.5Z"></path><path d="M396.36,204H354V14.69A14.72,14.72,0,0,0,339.3,0H60.7A14.72,14.72,0,0,0,46,14.69V204H3.64A3.64,3.64,0,0,0,0,207.64V215a11,11,0,0,0,11,11H389a11,11,0,0,0,11-11v-7.36A3.64,3.64,0,0,0,396.36,204ZM50,14.69A10.71,10.71,0,0,1,60.7,4H339.3A10.71,10.71,0,0,1,350,14.69V204H50ZM228,208v.73a.94.94,0,0,1-1,.88H172.94a.92.92,0,0,1-.94-.81V208Zm168,7a7,7,0,0,1-7,7H11a7,7,0,0,1-7-7v-7H168v.87a4.91,4.91,0,0,0,4.85,4.74h54.09A4.9,4.9,0,0,0,232,208.8V208H396Z"></path><path d="M225.26,141.26c-4.88,4.74-10.27,4-15.4,1.76a19.52,19.52,0,0,0-16.21,0c-7.18,3.1-11,2.2-15.31-1.76-24.41-25.13-20.81-63.41,6.93-64.85,6.73.36,11.44,3.72,15.4,4,5.89-1.2,11.53-4.63,17.84-4.18q11.36.92,17,9c-15.58,9.37-11.89,29.9,2.42,35.67-2.86,7.52-6.54,14.95-12.7,20.44ZM200.13,76.14c-.73-11.17,8.32-20.36,18.74-21.26C220.3,67.76,207.16,77.4,200.13,76.14Z"></path></svg>