<svg xmlns="http://www.w3.org/2000/svg" id="Layer_2" data-name="Layer 2" viewBox="0 0 184.63 299.74"><path d="M138.62,250.1H37.55a38,38,0,0,1-4.77-.31l.41.37a37.7,37.7,0,0,0,5.24.36h100a37.91,37.91,0,0,0,5.24-.36l.51-.46A39.55,39.55,0,0,1,138.62,250.1Zm4.7-200.82h0a39.51,39.51,0,0,0-4.89-.31h-100a38.71,38.71,0,0,0-4.84.3c-.28.27-.57.53-.86.79a39.55,39.55,0,0,1,5.56-.4h101a38,38,0,0,1,4.77.31Q143.7,49.64,143.32,49.28Z" transform="translate(0 -0.02)"></path><path d="M138.62,250.1H37.55a38,38,0,0,1-4.77-.31l.41.37a37.7,37.7,0,0,0,5.24.36h100a37.91,37.91,0,0,0,5.24-.36l.51-.46A39.55,39.55,0,0,1,138.62,250.1Zm4.7-200.82h0a39.51,39.51,0,0,0-4.89-.31h-100a38.71,38.71,0,0,0-4.84.3c-.28.27-.57.53-.86.79a39.55,39.55,0,0,1,5.56-.4h101a38,38,0,0,1,4.77.31Q143.7,49.64,143.32,49.28Z" transform="translate(0 -0.02)"></path><path d="M178.49,93a7.42,7.42,0,0,0-1.84.22c.11-3.47.19-5.61.19-5.71v-.14a38.13,38.13,0,0,0-6.16-20.83,3.79,3.79,0,0,0-.41-1,65.68,65.68,0,0,0-9.47-12.2,84,84,0,0,0-7.24-6.14c-5.3-4.14-9.13-7.14-10.85-14.05-.49-2-.84-4-1.21-6.25-1.16-6.86-2.48-14.64-8.77-20.32C126.21.76,115.87.45,108.31.23l-.45,0c-8-.27-16.16-.2-24-.13-3.75,0-7.49.06-11.22.06h-.82c-8.6,0-20.38,0-27.63,6.53-6.28,5.69-7.6,13.47-8.77,20.33-.37,2.2-.72,4.27-1.21,6.24-1.72,6.89-5.54,9.88-10.83,14A83.26,83.26,0,0,0,16,53.49,65.87,65.87,0,0,0,6.61,65.63a3.49,3.49,0,0,0-.35.76A38.27,38.27,0,0,0,0,87.39v.14C0,88,1.6,134.4,1.6,149.74S0,211.48,0,212v.14a38.32,38.32,0,0,0,6.08,20.74,3.87,3.87,0,0,0,.5,1.32,65.68,65.68,0,0,0,9.47,12.2,84,84,0,0,0,7.24,6.14c5.3,4.14,9.13,7.14,10.85,14.05.49,2,.84,4,1.21,6.25,1.16,6.86,2.48,14.64,8.77,20.32,6.49,5.86,16.8,6.2,24.33,6.44l.57,0c4.41.14,8.86.19,13.29.19,3.62,0,7.22,0,10.77-.06,3.74,0,7.48-.06,11.2-.06h.82c8.61,0,20.38,0,27.63-6.53,6.28-5.69,7.6-13.47,8.77-20.33.37-2.2.72-4.27,1.21-6.24,1.72-6.89,5.54-9.88,10.83-14a81.8,81.8,0,0,0,7.31-6.23,64.17,64.17,0,0,0,9.42-12.15,3.77,3.77,0,0,0,.49-1.28,38.16,38.16,0,0,0,6.08-20.77V212c0-.15-.18-5.3-.41-12.69h.41c2.13,0,2.73-2.44,2.73-5.45v-30.7c0-3-.59-5.44-2.73-5.44h-1.51c-.06-3.1-.09-5.81-.09-7.93,0-4.12.12-10.48.29-17.59a7.6,7.6,0,0,0,2.9.56c7,0,6.17-8.84,6.17-19.84S185.42,93,178.49,93ZM33.58,49.27A27.26,27.26,0,0,0,42,35.2c.57-2.27,1-4.6,1.34-6.84,1-6.11,2-11.88,6.21-15.68C54.32,8.4,63.73,8.24,70.92,8.24H72.6c3.75,0,7.51,0,11.29-.06,7.8-.07,15.86-.13,23.71.13h.47c6.3.19,14.92.45,19.22,4.34s5.19,9.56,6.22,15.66c.38,2.25.77,4.58,1.34,6.86a27.35,27.35,0,0,0,8.46,14.1h0q.38.36.75.69a38,38,0,0,0-4.77-.31h-101a39.55,39.55,0,0,0-5.56.4C33,49.8,33.3,49.54,33.58,49.27ZM143.67,250.16a27.46,27.46,0,0,0-8.82,14.42c-.56,2.27-1,4.6-1.34,6.84-1,6.11-2,11.88-6.22,15.68-4.92,4.45-14.92,4.46-22.19,4.44h-.82c-3.73,0-7.5,0-11.27.06-7.8.07-15.88.14-23.72-.13l-.58,0c-6.28-.2-14.88-.48-19.16-4.35s-5.18-9.56-6.21-15.66c-.38-2.26-.77-4.58-1.34-6.86a27.45,27.45,0,0,0-8.81-14.42l-.41-.37a38,38,0,0,0,4.77.31H138.62a39.55,39.55,0,0,0,5.56-.4Zm25.07-38a30,30,0,0,1-7.54,20l0,0q-.61.71-1.29,1.38a30.12,30.12,0,0,1-21.44,8.89h-100a30,30,0,0,1-15.22-4.12c-.17-.09-.34-.18-.5-.28A30.35,30.35,0,0,1,8.1,212.16c.07-2.09,1.6-47.22,1.6-62.42S8.17,89.41,8.1,87.32A30.35,30.35,0,0,1,38.42,57.07h100a30.15,30.15,0,0,1,20.92,8.41l0,0a30.19,30.19,0,0,1,9.37,21.82c-.07,2.09-1.6,47.22-1.6,62.42S168.67,210.08,168.74,212.16Z" transform="translate(0 -0.02)"></path><path d="M113.66,183.12c-4.88,4.73-10.27,4-15.4,1.76a19.52,19.52,0,0,0-16.21,0c-7.18,3.1-11,2.2-15.31-1.76-24.41-25.13-20.81-63.41,7-64.86,6.73.36,11.44,3.72,15.4,4,5.89-1.2,11.53-4.63,17.84-4.18q11.36.93,17,9c-15.51,9.34-11.87,29.88,2.49,35.65-2.86,7.52-6.54,15-12.7,20.45ZM88.53,118c-.73-11.17,8.32-20.36,18.74-21.26C108.72,109.62,95.56,119.26,88.53,118Z" transform="translate(0 -0.02)"></path><path d="M138.61,242H37.56a30.16,30.16,0,0,1-14.35-3.7,30,30,0,0,0,15.22,4.12h100a30.12,30.12,0,0,0,21.44-8.89q.67-.67,1.29-1.38A30.82,30.82,0,0,1,138.61,242Z" transform="translate(0 -0.02)"></path><path d="M138.42,57.07h-100A30.31,30.31,0,0,0,12.92,71a2.67,2.67,0,0,0,.44-.5A30.8,30.8,0,0,1,38.28,57.76h101a30.26,30.26,0,0,1,20.05,7.72A30.15,30.15,0,0,0,138.42,57.07Z" transform="translate(0 -0.02)"></path></svg>