<svg xmlns="http://www.w3.org/2000/svg" id="Layer_1" data-name="Layer 1" viewBox="0 0 298.7 252.5"><g id="Layer_2" data-name="Layer 2"><path d="M174.61,128.38c-4.88,4.73-10.27,4-15.4,1.76a19.52,19.52,0,0,0-16.21,0c-7.18,3.1-11,2.2-15.31-1.76-24.41-25.13-20.81-63.41,6.93-64.85,6.73.36,11.44,3.72,15.4,4,5.89-1.2,11.53-4.63,17.84-4.18q11.35.91,17,9C169.35,81.69,173,102.23,187.35,108c-2.86,7.52-6.54,15-12.7,20.45ZM149.48,63.26C148.75,52.09,157.8,42.9,168.22,42c1.43,12.88-11.71,22.52-18.74,21.26Z" transform="translate(0.01)"></path><path d="M280.59,0H18.09A18.12,18.12,0,0,0,0,18.1V199.35a18.12,18.12,0,0,0,18.1,18.1H124L117.48,240H110a6.51,6.51,0,0,0-6.39,6.55v6h91.48v-6a6.51,6.51,0,0,0-6.43-6.58h-7.42l-6.51-22.48H280.59a18.12,18.12,0,0,0,18.1-18.1V18.1A18.12,18.12,0,0,0,280.59,0ZM6.36,17c0-4.68,3.91-10.62,8.29-10.62H284.07c4.37,0,8.25,6,8.25,10.65V172.91H6.36ZM177.47,244.93h11.14a1.5,1.5,0,0,1,1.47,1.55v1H108.6v-1A1.5,1.5,0,0,1,110,245h11.2l7.82-27,40.61,0Zm115.22-45.58a12.12,12.12,0,0,1-12.1,12.1H18.09A12.13,12.13,0,0,1,6,199.35V180.08h286.7Z" transform="translate(0.01)"></path></g></svg>