<?xml version="1.0" encoding="utf-8"?>
<!-- Generator: Adobe Illustrator 25.4.1, SVG Export Plug-In . SVG Version: 6.00 Build 0)  -->
<svg version="1.1" id="Layer_1" xmlns="http://www.w3.org/2000/svg" xmlns:xlink="http://www.w3.org/1999/xlink" x="0px" y="0px"
	 viewBox="0 0 389.4 449.6" style="enable-background:new 0 0 389.4 449.6;" xml:space="preserve">
<style type="text/css">
	.st0{fill-rule:evenodd;clip-rule:evenodd;fill:#FFFFFF;}
</style>
<path class="st0" d="M88.2,198.9C88.2,198.9,88.2,198.9,88.2,198.9L88.2,198.9L88.2,198.9z M88.2,198.9
	C88.2,198.9,88.2,198.9,88.2,198.9L88.2,198.9L88.2,198.9z M88.2,198.9C88.2,198.9,88.2,198.9,88.2,198.9L88.2,198.9L88.2,198.9z
	 M277.2,0c-23.3,0.9-51.1,15.4-67.6,35c-9.5,11-16.7,23.8-21,37.7c-3.1-7-7.3-13.5-12.3-19.3c-12.2-14.6-32.8-25.3-50.1-26
	c-2.2,20,6.2,39.9,17.8,54.3c10.6,13.3,27,23,44.1,24.2c24.8,1.7,50-13.8,65.1-32.6C268.8,53.8,280.2,27,277.2,0z"/>
<path class="st0" d="M388.7,219.4v-1c-1.4-18-10.4-46.4-17.9-58.6v0.1h0v-0.1c-13.8-24.5-35.3-43-60.5-51.7
	c-11.3-4.1-23.2-6.3-35.2-6.5c-29.9-2.5-60.9,16.6-80.2,19.9c-19.3-3.3-50.3-22.4-80.2-19.9c-12,0.2-23.9,2.4-35.2,6.5
	c-25.2,8.7-46.7,27.2-60.5,51.7v0.1h-0.1v-0.1C11.3,172,2.2,200.4,0.9,218.4v1c-1.8,11.5,0,41.8,2,56.5c0.1,0.2,0.1,0.5,0.1,0.7
	c1.6,14.6,9,42.8,14.6,56.5v0.1c5.3,15.2,20.2,43.8,29.8,58.4v0.1h0.1c19.4,27.9,42.3,59.2,72.4,57.9c7.7-0.3,15.3-1.9,22.4-4.7h0.1
	c14.4-5,25.8-13,46.5-14.2c0.7-0.1,1.3-0.1,2-0.1c1.3,0,2.6,0,3.9,0c1.3,0,2.6,0,3.8,0c0.7,0,1.3,0.1,2,0.1
	c20.8,1.2,32.1,9.2,46.5,14.2h0.1c7.2,2.8,14.8,4.4,22.4,4.7c30.1,1.4,53-30,72.4-57.9h0.1v-0.1c4.8-7.3,10.9-18.1,16.5-29
	c5.6-10.9,10.6-21.8,13.3-29.4v-0.1c2.8-6.9,6-17.4,8.8-28c2.7-10.6,5-21.3,5.8-28.6c0-0.2,0.1-0.5,0.1-0.7
	C388.7,261.2,390.5,230.8,388.7,219.4z M88.2,198.9C88.2,198.9,88.2,198.9,88.2,198.9L88.2,198.9C88.2,198.9,88.2,198.9,88.2,198.9z
	"/>
</svg>
